<svg width="27" height="28" viewBox="0 0 27 28" fill="none" xmlns="http://www.w3.org/2000/svg">
<rect y="0.5" width="27" height="27" rx="13.5" fill="url(#paint0_linear_841_3235)"/>
<path d="M16.4238 17.1094V18H10.8398V17.2207L13.6348 14.1094C13.9785 13.7266 14.2441 13.4023 14.4316 13.1367C14.623 12.8672 14.7559 12.627 14.8301 12.416C14.9082 12.2012 14.9473 11.9824 14.9473 11.7598C14.9473 11.4785 14.8887 11.2246 14.7715 10.998C14.6582 10.7676 14.4902 10.584 14.2676 10.4473C14.0449 10.3105 13.7754 10.2422 13.459 10.2422C13.0801 10.2422 12.7637 10.3164 12.5098 10.4648C12.2598 10.6094 12.0723 10.8125 11.9473 11.0742C11.8223 11.3359 11.7598 11.6367 11.7598 11.9766H10.6758C10.6758 11.4961 10.7812 11.0566 10.9922 10.6582C11.2031 10.2598 11.5156 9.94336 11.9297 9.70898C12.3438 9.4707 12.8535 9.35156 13.459 9.35156C13.998 9.35156 14.459 9.44727 14.8418 9.63867C15.2246 9.82617 15.5176 10.0918 15.7207 10.4355C15.9277 10.7754 16.0312 11.1738 16.0312 11.6309C16.0312 11.8809 15.9883 12.1348 15.9023 12.3926C15.8203 12.6465 15.7051 12.9004 15.5566 13.1543C15.4121 13.4082 15.2422 13.6582 15.0469 13.9043C14.8555 14.1504 14.6504 14.3926 14.4316 14.6309L12.1465 17.1094H16.4238Z" fill="white"/>
<defs>
<linearGradient id="paint0_linear_841_3235" x1="4.27874" y1="19.6796" x2="20.6266" y2="1.36223" gradientUnits="userSpaceOnUse">
<stop stop-color="#D8D8D8"/>
<stop offset="1" stop-color="#999999"/>
</linearGradient>
</defs>
</svg>
