<svg width="27" height="28" viewBox="0 0 27 28" fill="none" xmlns="http://www.w3.org/2000/svg">
<rect y="0.5" width="27" height="27" rx="13.5" fill="url(#paint0_linear_841_3246)"/>
<path d="M12.416 13.2012H13.1895C13.5684 13.2012 13.8809 13.1387 14.127 13.0137C14.377 12.8848 14.5625 12.7109 14.6836 12.4922C14.8086 12.2695 14.8711 12.0195 14.8711 11.7422C14.8711 11.4141 14.8164 11.1387 14.707 10.916C14.5977 10.6934 14.4336 10.5254 14.2148 10.4121C13.9961 10.2988 13.7188 10.2422 13.3828 10.2422C13.0781 10.2422 12.8086 10.3027 12.5742 10.4238C12.3438 10.541 12.1621 10.709 12.0293 10.9277C11.9004 11.1465 11.8359 11.4043 11.8359 11.7012H10.752C10.752 11.2676 10.8613 10.873 11.0801 10.5176C11.2988 10.1621 11.6055 9.87891 12 9.66797C12.3984 9.45703 12.8594 9.35156 13.3828 9.35156C13.8984 9.35156 14.3496 9.44336 14.7363 9.62695C15.123 9.80664 15.4238 10.0762 15.6387 10.4355C15.8535 10.791 15.9609 11.2344 15.9609 11.7656C15.9609 11.9805 15.9102 12.2109 15.8086 12.457C15.7109 12.6992 15.5566 12.9258 15.3457 13.1367C15.1387 13.3477 14.8691 13.5215 14.5371 13.6582C14.2051 13.791 13.8066 13.8574 13.3418 13.8574H12.416V13.2012ZM12.416 14.0918V13.4414H13.3418C13.8848 13.4414 14.334 13.5059 14.6895 13.6348C15.0449 13.7637 15.3242 13.9355 15.5273 14.1504C15.7344 14.3652 15.8789 14.6016 15.9609 14.8594C16.0469 15.1133 16.0898 15.3672 16.0898 15.6211C16.0898 16.0195 16.0215 16.373 15.8848 16.6816C15.752 16.9902 15.5625 17.252 15.3164 17.4668C15.0742 17.6816 14.7891 17.8438 14.4609 17.9531C14.1328 18.0625 13.7754 18.1172 13.3887 18.1172C13.0176 18.1172 12.668 18.0645 12.3398 17.959C12.0156 17.8535 11.7285 17.7012 11.4785 17.502C11.2285 17.2988 11.0332 17.0508 10.8926 16.7578C10.752 16.4609 10.6816 16.123 10.6816 15.7441H11.7656C11.7656 16.041 11.8301 16.3008 11.959 16.5234C12.0918 16.7461 12.2793 16.9199 12.5215 17.0449C12.7676 17.166 13.0566 17.2266 13.3887 17.2266C13.7207 17.2266 14.0059 17.1699 14.2441 17.0566C14.4863 16.9395 14.6719 16.7637 14.8008 16.5293C14.9336 16.2949 15 16 15 15.6445C15 15.2891 14.9258 14.998 14.7773 14.7715C14.6289 14.541 14.418 14.3711 14.1445 14.2617C13.875 14.1484 13.5566 14.0918 13.1895 14.0918H12.416Z" fill="white"/>
<defs>
<linearGradient id="paint0_linear_841_3246" x1="4.27874" y1="19.6796" x2="20.6266" y2="1.36223" gradientUnits="userSpaceOnUse">
<stop stop-color="#956956"/>
<stop offset="1" stop-color="#D79376"/>
</linearGradient>
</defs>
</svg>
