<svg width="171" height="40" viewBox="0 0 171 40" fill="none" xmlns="http://www.w3.org/2000/svg">
<path d="M22.7156 12.0238C21.4577 10.5593 19.9415 9.3474 18.2213 8.44282C17.0382 5.775 14.4076 3.91414 11.355 3.91414C8.30235 3.91414 5.68046 5.775 4.50018 8.44282C2.78001 9.3474 1.26374 10.5621 0.00592134 12.0238C-0.1951 5.42178 4.96827 0 11.3579 0C17.7532 0 22.908 5.42178 22.7156 12.0238Z" fill="url(#paint0_linear_11_4)"/>
<path d="M17.015 17.1728C15.6394 15.5733 13.612 14.5481 11.3577 14.5481C10.545 14.5481 9.75527 14.6859 9.02011 14.9358V10.8809C9.78399 10.7172 10.5622 10.6311 11.3577 10.6311C14.3242 10.6311 17.0236 11.8027 19.0453 13.7124C19.1573 13.8273 19.2751 13.9393 19.3871 14.0484C19.6369 14.2868 19.8666 14.551 20.0791 14.8238C20.1825 14.9559 20.283 15.088 20.3864 15.2287C20.4783 15.3407 20.5616 15.4613 20.6449 15.5819C20.6879 15.6422 20.7195 15.6939 20.754 15.7456C20.7626 15.7542 20.7712 15.7714 20.7798 15.78C20.8373 15.8748 20.9062 15.9782 20.9636 16.0816C21.0555 16.2194 21.1302 16.3573 21.2077 16.4951C21.2163 16.5037 21.225 16.5123 21.225 16.5209C21.3082 16.676 21.3915 16.8311 21.4691 16.9775C21.4518 17.012 21.4346 17.0551 21.403 17.1068C21.3944 17.1326 21.3772 17.1498 21.3599 17.1843C21.3341 17.2188 21.3082 17.2705 21.2853 17.3221C21.2106 17.46 21.1101 17.6237 21.001 17.8218C20.9751 17.8649 20.9895 17.9396 20.9895 17.9396C20.9895 17.9396 20.9177 17.9683 20.9091 17.9769C20.6162 18.5024 20.2141 19.1916 19.7431 19.9986C17.4831 23.861 13.6637 30.331 12.0613 32.8925C11.731 33.4181 10.9844 33.4181 10.6541 32.8925C9.0517 30.3339 5.23804 23.8696 2.98373 20.0043C2.51564 19.1945 2.11073 18.4967 1.80919 17.974C1.80058 17.9654 1.79196 17.9482 1.79196 17.9396C1.76612 17.8965 1.74027 17.862 1.7173 17.819C1.69145 17.7673 1.66561 17.7242 1.63402 17.6811C1.55935 17.5433 1.49043 17.4227 1.433 17.3193C1.40715 17.2676 1.38131 17.2159 1.35833 17.1814C1.3411 17.147 1.33249 17.1297 1.31526 17.1039C1.28941 17.0522 1.26357 17.0091 1.24921 16.9747C1.33249 16.8196 1.40715 16.6645 1.4933 16.5181C1.57658 16.3716 1.66848 16.2165 1.76037 16.0701C1.76899 16.0529 1.7776 16.027 1.79484 16.0098C1.8695 15.8892 1.95278 15.7599 2.03893 15.6393C2.13083 15.5015 2.23134 15.3636 2.33185 15.2258C2.33185 15.2172 2.34046 15.2086 2.34046 15.2086C2.43236 15.0966 2.51564 14.9846 2.59892 14.8812C2.61615 14.8467 2.642 14.8209 2.66497 14.795C2.76548 14.6658 2.87461 14.5452 2.98373 14.4246C3.09286 14.2954 3.2106 14.1661 3.32834 14.0455L3.69018 13.6837L11.3606 26.5949C11.6248 26.2962 15.1627 20.3145 17.015 17.1728Z" fill="url(#paint1_linear_11_4)"/>
<path d="M31.3938 21.8767C31.3938 20.2771 31.6896 18.7953 32.2783 17.4227C32.867 16.0529 33.6711 14.864 34.6905 13.856C35.7071 12.848 36.9018 12.0583 38.2716 11.4868C39.6414 10.9154 41.0974 10.6311 42.6395 10.6311C43.4953 10.6311 44.308 10.7115 45.0805 10.8752C45.8501 11.036 46.5939 11.3002 47.3061 11.6591C48.0182 12.021 48.7189 12.4776 49.4053 13.0289C50.0916 13.5803 50.7751 14.2466 51.4614 15.0277L49.1497 17.2245C47.3807 14.8841 45.2298 13.7124 42.6998 13.7124C41.5569 13.7124 40.4972 13.922 39.5179 14.3413C38.5387 14.7606 37.6858 15.3349 36.9621 16.0672C36.2384 16.7995 35.6727 17.661 35.2649 18.6517C34.8542 19.6425 34.6503 20.7165 34.6503 21.8767C34.6503 23.0569 34.8743 24.1425 35.3223 25.1303C35.7703 26.1211 36.359 26.9711 37.0913 27.6861C37.8236 28.3983 38.6564 28.9554 39.5897 29.3575C40.523 29.7566 41.4736 29.9577 42.4442 29.9577C43.3373 29.9577 44.1673 29.8112 44.9283 29.5154C45.6893 29.2196 46.3498 28.8262 46.9126 28.3323C47.4726 27.8383 47.9263 27.2525 48.2681 26.5777C48.6098 25.9028 48.8195 25.1935 48.897 24.4497V24.421H43.5297V21.3626H52.435V22.0748C52.435 23.7117 52.1966 25.1992 51.7228 26.5432C51.2461 27.8843 50.577 29.0301 49.7097 29.9835C48.8424 30.934 47.7885 31.6721 46.5422 32.1947C45.2958 32.7174 43.9031 32.9787 42.3609 32.9787C40.8389 32.9787 39.4117 32.6886 38.0792 32.1086C36.7467 31.5285 35.5865 30.733 34.5958 29.725C33.605 28.7171 32.8268 27.5368 32.2553 26.1871C31.681 24.8345 31.3938 23.3987 31.3938 21.8767Z" fill="#619B8A"/>
<path d="M61.5929 18.623C62.6009 18.623 63.5055 18.7896 64.3038 19.1227C65.1022 19.4558 65.7741 19.9354 66.3169 20.5643C66.8597 21.1932 67.2732 21.9485 67.5575 22.8329C67.8418 23.7174 67.9854 24.7024 67.9854 25.7879V26.5288H58.2531C58.3479 27.6517 58.7011 28.5419 59.3099 29.1966C59.9187 29.8543 60.7457 30.1816 61.7939 30.1816C62.5549 30.1816 63.2068 30.0093 63.7496 29.6676C64.2923 29.3259 64.8006 28.7544 65.2773 27.9561L67.8447 29.5269C67.1784 30.6698 66.3399 31.5285 65.3319 32.1085C64.3239 32.6886 63.1063 32.9787 61.6791 32.9787C60.6711 32.9787 59.7521 32.8064 58.9251 32.4646C58.098 32.1229 57.3944 31.6376 56.8144 31.0087C56.2343 30.3798 55.7805 29.6245 55.4589 28.74C55.1344 27.8556 54.9736 26.8792 54.9736 25.8138C54.9736 24.7484 55.1315 23.772 55.4445 22.8875C55.7576 22.003 56.2055 21.2478 56.7856 20.6189C57.3657 19.9899 58.0664 19.5018 58.8849 19.1485C59.7004 18.7982 60.605 18.623 61.5929 18.623ZM58.4541 23.9586H64.7633C64.6312 23.1201 64.2837 22.4883 63.7209 22.0604C63.1609 21.6326 62.4602 21.4172 61.6216 21.4172C60.7831 21.4172 60.0996 21.6469 59.5655 22.1035C59.0342 22.5601 58.6637 23.1804 58.4541 23.9586Z" fill="#619B8A"/>
<path d="M70.0415 25.7018C70.0415 24.7311 70.2138 23.8179 70.5555 22.9622C70.8973 22.1064 71.3883 21.3598 72.0259 20.7222C72.6634 20.0847 73.4244 19.5764 74.3089 19.1945C75.1934 18.8154 76.1784 18.623 77.2639 18.623C78.3494 18.623 79.3344 18.8097 80.2189 19.1801C81.1034 19.5506 81.8644 20.0617 82.502 20.7079C83.1395 21.354 83.6334 22.115 83.9866 22.9909C84.3399 23.8668 84.515 24.8087 84.515 25.8166C84.515 26.8246 84.3399 27.7665 83.9866 28.6424C83.6334 29.5183 83.1395 30.2735 82.502 30.9111C81.8644 31.5486 81.0977 32.054 80.2046 32.4244C79.3115 32.7949 78.3121 32.9816 77.2065 32.9816C76.1411 32.9816 75.1647 32.7949 74.2802 32.4244C73.3957 32.054 72.6375 31.5457 72.0115 30.8967C71.3826 30.2506 70.8973 29.4781 70.5555 28.585C70.2138 27.689 70.0415 26.7298 70.0415 25.7018ZM73.2377 25.7592C73.2377 27.1118 73.5996 28.1858 74.3233 28.9841C75.0469 29.7825 76.0262 30.1816 77.2639 30.1816C78.4815 30.1816 79.4608 29.7825 80.2046 28.9841C80.9483 28.1858 81.3188 27.129 81.3188 25.8166C81.3188 24.5244 80.9512 23.4705 80.2189 22.6635C79.4866 21.8537 78.5016 21.4516 77.2639 21.4516C76.6752 21.4516 76.1325 21.555 75.6356 21.7647C75.1417 21.9743 74.7138 22.273 74.352 22.6635C73.9901 23.0541 73.7145 23.5107 73.5249 24.0333C73.3354 24.556 73.2377 25.1303 73.2377 25.7592Z" fill="#619B8A"/>
<path d="M88.1679 18.9935V14.0254H91.3067V18.9906H93.7333V21.9312H91.3067V32.5766H88.1679V21.9341H85.971V18.9935H88.1679Z" fill="#233D4D"/>
<path d="M94.905 25.7592C94.905 24.7513 95.0715 23.8151 95.4046 22.9478C95.7378 22.0835 96.203 21.3311 96.8032 20.6935C97.4034 20.056 98.1069 19.5564 98.9139 19.1945C99.7237 18.8327 100.602 18.6518 101.553 18.6518C102.409 18.6518 103.199 18.7954 103.922 19.0796C104.646 19.3639 105.349 19.8407 106.033 20.5069H106.062V18.9935H109.2V32.5795H106.062V31.0662H106.033C105.349 31.7324 104.649 32.2177 103.937 32.5221C103.224 32.8265 102.458 32.9787 101.639 32.9787C100.669 32.9787 99.7697 32.7921 98.9426 32.4216C98.1156 32.0512 97.4005 31.5429 96.8032 30.8939C96.203 30.2477 95.7378 29.4867 95.4046 28.6108C95.0687 27.7378 94.905 26.7844 94.905 25.7592ZM98.1012 25.7592C98.1012 26.3881 98.1902 26.9711 98.3711 27.5139C98.5521 28.0566 98.8134 28.5276 99.1551 28.9267C99.4969 29.3259 99.9219 29.636 100.424 29.8543C100.93 30.0725 101.496 30.1817 102.122 30.1817C102.751 30.1817 103.316 30.0725 103.819 29.8543C104.324 29.636 104.755 29.3316 105.117 28.9411C105.479 28.5505 105.76 28.0911 105.958 27.5569C106.159 27.0257 106.257 26.4427 106.257 25.8167C106.257 25.2079 106.156 24.6364 105.958 24.1051C105.757 23.5739 105.479 23.1115 105.117 22.721C104.755 22.3304 104.321 22.0203 103.819 21.7934C103.313 21.5637 102.759 21.4517 102.15 21.4517C101.542 21.4517 100.984 21.5665 100.479 21.7934C99.9736 22.0231 99.5457 22.3275 99.1953 22.7066C98.8421 23.0886 98.5722 23.5394 98.3826 24.0621C98.196 24.5847 98.1012 25.1504 98.1012 25.7592Z" fill="#233D4D"/>
<path d="M118.508 18.6518C119.363 18.6518 120.153 18.7954 120.877 19.0796C121.601 19.3639 122.304 19.8407 122.988 20.5069H123.016V18.9935H126.155V32.5508C126.155 34.9114 125.598 36.7406 124.487 38.0444C123.372 39.3482 121.655 40 119.335 40C117.373 40 115.814 39.5492 114.654 38.6446C113.494 37.74 112.836 36.4133 112.684 34.6615L115.823 34.3772C116.032 35.3852 116.408 36.1031 116.951 36.531C117.494 36.9589 118.298 37.1743 119.363 37.1743C121.799 37.1743 123.016 35.7643 123.016 32.95V31.0662H122.988C121.77 32.3412 120.305 32.9787 118.591 32.9787C117.698 32.9787 116.868 32.792 116.107 32.4216C115.346 32.0511 114.688 31.5429 114.137 30.8939C113.586 30.2477 113.152 29.4867 112.839 28.6108C112.526 27.735 112.368 26.7844 112.368 25.7564C112.368 24.7484 112.526 23.8122 112.839 22.945C113.152 22.0806 113.586 21.3282 114.137 20.6907C114.688 20.0532 115.334 19.5535 116.078 19.1916C116.825 18.8327 117.635 18.6518 118.508 18.6518ZM119.338 30.1817C119.926 30.1817 120.46 30.0725 120.937 29.8543C121.414 29.636 121.822 29.3316 122.163 28.9411C122.505 28.5505 122.766 28.0911 122.947 27.5569C123.128 27.0257 123.217 26.4427 123.217 25.8167C123.217 25.2079 123.125 24.6364 122.947 24.1051C122.766 23.5739 122.505 23.1115 122.163 22.721C121.822 22.3304 121.411 22.0203 120.937 21.7934C120.46 21.5637 119.938 21.4517 119.366 21.4517C118.795 21.4517 118.278 21.5665 117.81 21.7934C117.345 22.0231 116.943 22.3275 116.609 22.7066C116.276 23.0886 116.021 23.5394 115.84 24.0621C115.659 24.5847 115.57 25.1504 115.57 25.7592C115.57 26.3881 115.656 26.9711 115.825 27.5139C115.998 28.0566 116.245 28.5276 116.566 28.9267C116.891 29.3259 117.284 29.636 117.752 29.8543C118.218 30.0725 118.746 30.1817 119.338 30.1817Z" fill="#233D4D"/>
<path d="M135.462 18.6518C136.318 18.6518 137.108 18.7954 137.832 19.0796C138.555 19.3639 139.259 19.8407 139.942 20.5069H139.971V18.9935H143.11V32.5508C143.11 34.9114 142.553 36.7406 141.441 38.0444C140.327 39.3482 138.61 40 136.289 40C134.328 40 132.769 39.5492 131.609 38.6446C130.448 37.74 129.791 36.4133 129.639 34.6615L132.777 34.3772C132.987 35.3852 133.363 36.1031 133.906 36.531C134.449 36.9589 135.253 37.1743 136.318 37.1743C138.753 37.1743 139.971 35.7643 139.971 32.95V31.0662H139.942C138.725 32.3412 137.26 32.9787 135.546 32.9787C134.653 32.9787 133.823 32.792 133.062 32.4216C132.301 32.0511 131.643 31.5429 131.092 30.8939C130.54 30.2477 130.107 29.4867 129.794 28.6108C129.481 27.735 129.323 26.7844 129.323 25.7564C129.323 24.7484 129.481 23.8122 129.794 22.945C130.107 22.0806 130.54 21.3282 131.092 20.6907C131.643 20.0532 132.289 19.5535 133.033 19.1916C133.78 18.8327 134.589 18.6518 135.462 18.6518ZM136.292 30.1817C136.881 30.1817 137.415 30.0725 137.892 29.8543C138.369 29.636 138.776 29.3316 139.118 28.9411C139.46 28.5505 139.721 28.0911 139.902 27.5569C140.083 27.0257 140.172 26.4427 140.172 25.8167C140.172 25.2079 140.08 24.6364 139.902 24.1051C139.721 23.5739 139.46 23.1115 139.118 22.721C138.776 22.3304 138.366 22.0203 137.892 21.7934C137.415 21.5637 136.893 21.4517 136.321 21.4517C135.75 21.4517 135.233 21.5665 134.765 21.7934C134.299 22.0231 133.897 22.3275 133.564 22.7066C133.231 23.0886 132.975 23.5394 132.795 24.0621C132.614 24.5847 132.525 25.1504 132.525 25.7592C132.525 26.3881 132.611 26.9711 132.78 27.5139C132.952 28.0566 133.199 28.5276 133.521 28.9267C133.846 29.3259 134.239 29.636 134.707 29.8543C135.172 30.0725 135.701 30.1817 136.292 30.1817Z" fill="#233D4D"/>
<path d="M152.733 18.623C153.741 18.623 154.646 18.7896 155.444 19.1227C156.242 19.4558 156.914 19.9354 157.457 20.5643C158 21.1932 158.413 21.9485 158.698 22.8329C158.982 23.7174 159.125 24.7024 159.125 25.7879V26.5288H149.393C149.488 27.6517 149.841 28.5419 150.45 29.1966C151.059 29.8543 151.886 30.1816 152.934 30.1816C153.695 30.1816 154.347 30.0093 154.89 29.6676C155.432 29.3259 155.941 28.7544 156.417 27.9561L158.985 29.5269C158.319 30.6698 157.48 31.5285 156.472 32.1085C155.464 32.6886 154.246 32.9787 152.819 32.9787C151.811 32.9787 150.892 32.8064 150.065 32.4646C149.238 32.1229 148.535 31.6376 147.954 31.0087C147.374 30.3798 146.921 29.6245 146.599 28.74C146.274 27.8556 146.114 26.8792 146.114 25.8138C146.114 24.7484 146.272 23.772 146.585 22.8875C146.898 22.003 147.346 21.2478 147.926 20.6189C148.506 19.9899 149.207 19.5018 150.025 19.1485C150.838 18.7982 151.742 18.623 152.733 18.623ZM149.594 23.9586H155.903C155.771 23.1201 155.424 22.4883 154.861 22.0604C154.301 21.6326 153.6 21.4172 152.762 21.4172C151.923 21.4172 151.24 21.6469 150.706 22.1035C150.171 22.5601 149.801 23.1804 149.594 23.9586Z" fill="#233D4D"/>
<path d="M162.124 18.9935H165.262V20.2197H165.32C165.834 19.6683 166.313 19.2634 166.761 19.0078C167.209 18.7522 167.764 18.623 168.433 18.623C169.251 18.623 170.107 18.8987 171 19.4501L169.573 22.3045C168.984 21.8853 168.401 21.6756 167.833 21.6756C166.121 21.6756 165.265 22.9593 165.265 25.5295V32.5795H162.126V18.9935H162.124Z" fill="#233D4D"/>
<defs>
<linearGradient id="paint0_linear_11_4" x1="0.000177883" y1="6.01218" x2="22.7214" y2="6.01218" gradientUnits="userSpaceOnUse">
<stop stop-color="#659E89"/>
<stop offset="0.3212" stop-color="#619B8A"/>
<stop offset="1" stop-color="#A1C181"/>
</linearGradient>
<linearGradient id="paint1_linear_11_4" x1="4.45348" y1="26.7246" x2="18.2598" y2="12.9182" gradientUnits="userSpaceOnUse">
<stop stop-color="#FE7F2D"/>
<stop offset="1" stop-color="#FCCA46"/>
</linearGradient>
</defs>
</svg>
