<svg width="105" height="23" viewBox="0 0 105 23" fill="none" xmlns="http://www.w3.org/2000/svg">
<path d="M0 8.9342C0 7.73455 0.221409 6.6232 0.662077 5.59369C1.10274 4.56634 1.70463 3.67467 2.46774 2.91869C3.2287 2.16272 4.12293 1.57043 5.14829 1.14183C6.17365 0.713224 7.26349 0.5 8.41783 0.5C9.05841 0.5 9.66674 0.560306 10.245 0.683071C10.8211 0.803683 11.3778 1.00183 11.9109 1.27105C12.444 1.54243 12.9685 1.88488 13.4823 2.29841C13.996 2.71193 14.5076 3.21161 15.0214 3.79744L13.291 5.44508C11.9668 3.68975 10.3568 2.81101 8.46297 2.81101C7.60743 2.81101 6.81423 2.96823 6.08121 3.28268C5.3482 3.59713 4.70977 4.02789 4.16807 4.57711C3.62637 5.12632 3.2029 5.77245 2.89766 6.51551C2.59027 7.25856 2.43765 8.06407 2.43765 8.9342C2.43765 9.8194 2.60531 10.6335 2.94065 11.3744C3.27599 12.1175 3.71666 12.755 4.2648 13.2913C4.81295 13.8254 5.43634 14.2433 6.13495 14.5448C6.83357 14.8442 7.54509 14.9949 8.27166 14.9949C8.94018 14.9949 9.56141 14.8851 10.1311 14.6633C10.7007 14.4414 11.1951 14.1463 11.6164 13.7759C12.0356 13.4054 12.3752 12.9661 12.631 12.4599C12.8868 11.9538 13.0438 11.4218 13.1018 10.864V10.8425H9.0842V8.54867H15.7501V9.08281C15.7501 10.3105 15.5717 11.4261 15.217 12.4341C14.8602 13.4399 14.3593 14.2993 13.7101 15.0143C13.061 15.7272 12.2721 16.2807 11.3391 16.6727C10.4062 17.0647 9.36365 17.2607 8.20932 17.2607C7.07003 17.2607 6.00168 17.0432 5.00427 16.6081C4.00685 16.1731 3.13841 15.5765 2.3968 14.8205C1.65519 14.0645 1.07265 13.1793 0.64488 12.167C0.21496 11.1526 0 10.0757 0 8.9342Z" fill="white"/>
<path d="M22.6052 6.49414C23.3597 6.49414 24.0368 6.61906 24.6344 6.8689C25.232 7.11874 25.735 7.47842 26.1413 7.9501C26.5476 8.42177 26.8571 8.98822 27.0699 9.65158C27.2827 10.3149 27.3902 11.0537 27.3902 11.8678V12.4235H20.1052C20.1762 13.2656 20.4406 13.9333 20.8963 14.4244C21.352 14.9176 21.9711 15.1631 22.7557 15.1631C23.3253 15.1631 23.8133 15.0339 24.2196 14.7776C24.6258 14.5213 25.0063 14.0927 25.3632 13.4939L27.2849 14.672C26.7862 15.5292 26.1585 16.1732 25.404 16.6083C24.6495 17.0434 23.7381 17.2609 22.6697 17.2609C21.9152 17.2609 21.2273 17.1317 20.6082 16.8754C19.9892 16.6191 19.4625 16.2551 19.0283 15.7834C18.5941 15.3117 18.2544 14.7453 18.0137 14.0819C17.7708 13.4185 17.6504 12.6863 17.6504 11.8872C17.6504 11.0882 17.7686 10.3559 18.0029 9.6925C18.2372 9.02914 18.5726 8.4627 19.0068 7.99102C19.441 7.51934 19.9655 7.1532 20.5781 6.88828C21.1886 6.62552 21.8658 6.49414 22.6052 6.49414ZM20.2557 10.4959H24.9784C24.8795 9.86696 24.6194 9.39313 24.1981 9.07222C23.7789 8.7513 23.2544 8.58977 22.6267 8.58977C21.999 8.58977 21.4874 8.76207 21.0876 9.10452C20.6899 9.44697 20.4126 9.91219 20.2557 10.4959Z" fill="white"/>
<path d="M28.9292 11.8032C28.9292 11.0752 29.0582 10.3903 29.314 9.7485C29.5698 9.10668 29.9374 8.5467 30.4146 8.06856C30.8918 7.59042 31.4614 7.2092 32.1235 6.92274C32.7856 6.63844 33.5229 6.49414 34.3354 6.49414C35.148 6.49414 35.8853 6.63414 36.5474 6.91197C37.2095 7.18981 37.7791 7.57319 38.2563 8.05779C38.7335 8.54239 39.1033 9.11314 39.3677 9.77004C39.6321 10.4269 39.7632 11.1334 39.7632 11.8894C39.7632 12.6453 39.6321 13.3518 39.3677 14.0087C39.1033 14.6656 38.7335 15.232 38.2563 15.7102C37.7791 16.1883 37.2052 16.5674 36.5366 16.8452C35.8681 17.1231 35.1201 17.263 34.2925 17.263C33.495 17.263 32.7641 17.1231 32.102 16.8452C31.4399 16.5674 30.8724 16.1862 30.4038 15.6994C29.9331 15.2148 29.5698 14.6354 29.314 13.9656C29.0582 13.2936 28.9292 12.5743 28.9292 11.8032ZM31.3217 11.8463C31.3217 12.8607 31.5926 13.6662 32.1343 14.265C32.676 14.8637 33.409 15.1631 34.3354 15.1631C35.2469 15.1631 35.9799 14.8637 36.5366 14.265C37.0934 13.6662 37.3707 12.8736 37.3707 11.8894C37.3707 10.9202 37.0955 10.1297 36.5474 9.52451C35.9992 8.91714 35.2619 8.61561 34.3354 8.61561C33.8948 8.61561 33.4885 8.69315 33.1166 8.85038C32.7469 9.0076 32.4266 9.2316 32.1558 9.52451C31.8849 9.81743 31.6785 10.1599 31.5367 10.5519C31.3948 10.9439 31.3217 11.3746 31.3217 11.8463Z" fill="white"/>
<path d="M42.4975 6.77194V3.0459H44.847V6.76978H46.6634V8.97525H44.847V16.9593H42.4975V8.9774H40.853V6.77194H42.4975Z" fill="white"/>
<path d="M47.5405 11.8462C47.5405 11.0903 47.6652 10.3881 47.9146 9.73768C48.1639 9.08939 48.5121 8.5251 48.9614 8.04696C49.4107 7.56882 49.9373 7.19407 50.5414 6.92269C51.1476 6.65131 51.8053 6.51562 52.5168 6.51562C53.1574 6.51562 53.7486 6.62332 54.2903 6.83654C54.832 7.04976 55.3586 7.40729 55.8702 7.90697H55.8917V6.77193H58.2412V16.9615H55.8917V15.8264H55.8702C55.3586 16.3261 54.8341 16.6901 54.301 16.9184C53.7679 17.1467 53.194 17.2608 52.5813 17.2608C51.8548 17.2608 51.1819 17.1208 50.5629 16.843C49.9438 16.5652 49.4085 16.1839 48.9614 15.6972C48.5121 15.2126 48.1639 14.6418 47.9146 13.9849C47.6631 13.3302 47.5405 12.6151 47.5405 11.8462ZM49.933 11.8462C49.933 12.3179 49.9997 12.7551 50.1351 13.1622C50.2705 13.5693 50.4661 13.9225 50.7219 14.2219C50.9777 14.5212 51.2959 14.7538 51.6721 14.9175C52.0504 15.0812 52.4739 15.1631 52.9425 15.1631C53.4132 15.1631 53.8367 15.0812 54.2129 14.9175C54.5912 14.7538 54.9137 14.5255 55.1845 14.2326C55.4553 13.9397 55.666 13.5951 55.8143 13.1945C55.9648 12.796 56.0379 12.3588 56.0379 11.8893C56.0379 11.4327 55.9627 11.0041 55.8143 10.6057C55.6639 10.2072 55.4553 9.86045 55.1845 9.56753C54.9137 9.27462 54.5891 9.04201 54.2129 8.87186C53.8345 8.69956 53.4197 8.61556 52.964 8.61556C52.5082 8.61556 52.0912 8.70171 51.7129 8.87186C51.3346 9.04416 51.0143 9.27246 50.752 9.55676C50.4876 9.84322 50.2856 10.1814 50.1437 10.5733C50.004 10.9653 49.933 11.3896 49.933 11.8462Z" fill="white"/>
<path d="M65.2081 6.51562C65.8487 6.51562 66.4399 6.62332 66.9816 6.83654C67.5232 7.04976 68.0499 7.40729 68.5615 7.90697H68.583V6.77193H70.9325V16.9399C70.9325 18.7103 70.5155 20.0823 69.6836 21.0601C68.8495 22.0379 67.5641 22.5268 65.8272 22.5268C64.359 22.5268 63.1918 22.1887 62.3234 21.5102C61.4549 20.8318 60.9627 19.8368 60.8488 18.5229L63.1983 18.3097C63.3552 19.0657 63.6368 19.6041 64.0431 19.9251C64.4493 20.246 65.0512 20.4075 65.8487 20.4075C67.6716 20.4075 68.583 19.35 68.583 17.2393V15.8264H68.5615C67.6501 16.7827 66.5538 17.2608 65.2705 17.2608C64.6019 17.2608 63.9807 17.1208 63.4111 16.843C62.8414 16.5652 62.3492 16.1839 61.9365 15.6972C61.5237 15.2126 61.1991 14.6418 60.9648 13.9849C60.7305 13.328 60.6123 12.6151 60.6123 11.8441C60.6123 11.0881 60.7305 10.386 60.9648 9.73553C61.1991 9.08724 61.5237 8.52295 61.9365 8.04481C62.3492 7.56667 62.8328 7.19191 63.3896 6.92054C63.9485 6.65131 64.5547 6.51562 65.2081 6.51562ZM65.8294 15.1631C66.27 15.1631 66.6699 15.0812 67.0267 14.9175C67.3835 14.7538 67.6888 14.5255 67.9446 14.2326C68.2004 13.9397 68.396 13.5951 68.5314 13.1945C68.6668 12.796 68.7335 12.3588 68.7335 11.8893C68.7335 11.4327 68.6647 11.0041 68.5314 10.6057C68.396 10.2072 68.2004 9.86045 67.9446 9.56753C67.6888 9.27462 67.3814 9.04201 67.0267 8.87186C66.6699 8.69956 66.2786 8.61556 65.8509 8.61556C65.4231 8.61556 65.0362 8.70171 64.6858 8.87186C64.3375 9.04416 64.0366 9.27246 63.7873 9.55676C63.5379 9.84322 63.3466 10.1814 63.2112 10.5733C63.0757 10.9653 63.0091 11.3896 63.0091 11.8462C63.0091 12.3179 63.0736 12.7551 63.2004 13.1622C63.3294 13.5693 63.5143 13.9225 63.755 14.2219C63.9979 14.5212 64.2924 14.7538 64.6428 14.9175C64.991 15.0812 65.3865 15.1631 65.8294 15.1631Z" fill="white"/>
<path d="M77.8993 6.51562C78.5399 6.51562 79.131 6.62332 79.6727 6.83654C80.2144 7.04976 80.7411 7.40729 81.2527 7.90697H81.2742V6.77193H83.6237V16.9399C83.6237 18.7103 83.2067 20.0823 82.3748 21.0601C81.5407 22.0379 80.2553 22.5268 78.5184 22.5268C77.0502 22.5268 75.883 22.1887 75.0146 21.5102C74.1461 20.8318 73.6539 19.8368 73.5399 18.5229L75.8894 18.3097C76.0464 19.0657 76.328 19.6041 76.7342 19.9251C77.1405 20.246 77.7424 20.4075 78.5399 20.4075C80.3627 20.4075 81.2742 19.35 81.2742 17.2393V15.8264H81.2527C80.3413 16.7827 79.245 17.2608 77.9616 17.2608C77.2931 17.2608 76.6719 17.1208 76.1022 16.843C75.5326 16.5652 75.0403 16.1839 74.6276 15.6972C74.2149 15.2126 73.8903 14.6418 73.656 13.9849C73.4217 13.328 73.3035 12.6151 73.3035 11.8441C73.3035 11.0881 73.4217 10.386 73.656 9.73553C73.8903 9.08724 74.2149 8.52295 74.6276 8.04481C75.0403 7.56667 75.524 7.19191 76.0807 6.92054C76.6396 6.65131 77.2458 6.51562 77.8993 6.51562ZM78.5205 15.1631C78.9612 15.1631 79.361 15.0812 79.7179 14.9175C80.0747 14.7538 80.3799 14.5255 80.6357 14.2326C80.8916 13.9397 81.0872 13.5951 81.2226 13.1945C81.358 12.796 81.4246 12.3588 81.4246 11.8893C81.4246 11.4327 81.3559 11.0041 81.2226 10.6057C81.0872 10.2072 80.8916 9.86045 80.6357 9.56753C80.3799 9.27462 80.0726 9.04201 79.7179 8.87186C79.361 8.69956 78.9698 8.61556 78.542 8.61556C78.1143 8.61556 77.7273 8.70171 77.377 8.87186C77.0287 9.04416 76.7278 9.27246 76.4784 9.55676C76.2291 9.84322 76.0378 10.1814 75.9023 10.5733C75.7669 10.9653 75.7003 11.3896 75.7003 11.8462C75.7003 12.3179 75.7648 12.7551 75.8916 13.1622C76.0206 13.5693 76.2054 13.9225 76.4462 14.2219C76.6891 14.5212 76.9836 14.7538 77.334 14.9175C77.6822 15.0812 78.0777 15.1631 78.5205 15.1631Z" fill="white"/>
<path d="M90.8269 6.49414C91.5814 6.49414 92.2585 6.61906 92.8561 6.8689C93.4537 7.11874 93.9567 7.47842 94.363 7.9501C94.7693 8.42177 95.0788 8.98822 95.2916 9.65158C95.5044 10.3149 95.6119 11.0537 95.6119 11.8678V12.4235H88.3269C88.3978 13.2656 88.6623 13.9333 89.118 14.4244C89.5737 14.9176 90.1928 15.1631 90.9774 15.1631C91.547 15.1631 92.035 15.0339 92.4412 14.7776C92.8475 14.5213 93.228 14.0927 93.5848 13.4939L95.5066 14.672C95.0079 15.5292 94.3802 16.1732 93.6257 16.6083C92.8712 17.0434 91.9597 17.2609 90.8914 17.2609C90.1369 17.2609 89.449 17.1317 88.8299 16.8754C88.2108 16.6191 87.6842 16.2551 87.25 15.7834C86.8158 15.3117 86.4761 14.7453 86.2354 14.0819C85.9924 13.4185 85.8721 12.6863 85.8721 11.8872C85.8721 11.0882 85.9903 10.3559 86.2246 9.6925C86.4589 9.02914 86.7942 8.4627 87.2285 7.99102C87.6627 7.51934 88.1872 7.1532 88.7998 6.88828C89.4082 6.62552 90.0853 6.49414 90.8269 6.49414ZM88.4774 10.4959H93.2001C93.1012 9.86696 92.8411 9.39313 92.4198 9.07222C92.0006 8.7513 91.4761 8.58977 90.8484 8.58977C90.2207 8.58977 89.7091 8.76207 89.3093 9.10452C88.9095 9.44697 88.6322 9.91219 88.4774 10.4959Z" fill="white"/>
<path d="M97.8562 6.77198H100.206V7.69164H100.249C100.633 7.27812 100.992 6.97443 101.328 6.78275C101.663 6.59106 102.078 6.49414 102.579 6.49414C103.192 6.49414 103.832 6.7009 104.501 7.11443L103.432 9.25529C102.992 8.94083 102.555 8.78361 102.13 8.78361C100.848 8.78361 100.208 9.74635 100.208 11.674V16.9615H97.8584V6.77198H97.8562Z" fill="white"/>
</svg>
