<svg width="17" height="20" viewBox="0 0 17 20" fill="none" xmlns="http://www.w3.org/2000/svg">
<path d="M13.0297 5.93649C11.8954 4.61687 10.2237 3.77108 8.36485 3.77108C7.69473 3.77108 7.04356 3.8848 6.43737 4.09092V0.745667C7.06724 0.610625 7.70894 0.539551 8.36485 0.539551C10.8109 0.539551 13.0368 1.50617 14.7038 3.08166C14.7961 3.17642 14.8932 3.26882 14.9856 3.35885C15.1916 3.55549 15.381 3.77345 15.5562 3.99852C15.6415 4.1075 15.7243 4.21648 15.8096 4.33257C15.8854 4.42497 15.954 4.52447 16.0227 4.62398C16.0582 4.67373 16.0843 4.71638 16.1127 4.75902C16.1198 4.76613 16.1269 4.78034 16.134 4.78745C16.1814 4.86563 16.2382 4.95092 16.2855 5.03621C16.3613 5.14993 16.4229 5.26365 16.4868 5.37737C16.4939 5.38448 16.501 5.39159 16.501 5.39869C16.5697 5.52663 16.6384 5.65456 16.7023 5.77539C16.6881 5.80382 16.6739 5.83936 16.6478 5.882C16.6407 5.90332 16.6265 5.91754 16.6123 5.94597C16.591 5.9744 16.5697 6.01704 16.5507 6.05969C16.4892 6.17341 16.4063 6.30845 16.3163 6.47192C16.295 6.50746 16.3069 6.56906 16.3069 6.56906C16.3069 6.56906 16.2477 6.59275 16.2405 6.59986C15.999 7.03341 15.6675 7.60201 15.2792 8.26774C13.4156 11.4543 10.2663 16.792 8.94499 18.9053C8.67268 19.3388 8.05703 19.3388 7.78472 18.9053C6.46342 16.7943 3.31882 11.4614 1.46001 8.27248C1.07404 7.60438 0.74016 7.02867 0.491529 6.59749C0.484425 6.59038 0.477322 6.57617 0.477322 6.56906C0.45601 6.53352 0.434699 6.50509 0.415756 6.46955C0.394444 6.42691 0.373133 6.39137 0.347086 6.35583C0.28552 6.24211 0.22869 6.14261 0.181332 6.05732C0.160021 6.01468 0.138709 5.97203 0.119766 5.9436C0.105559 5.91517 0.0984548 5.90096 0.0842473 5.87963C0.062936 5.83699 0.0416247 5.80145 0.0297852 5.77302C0.0984548 5.64509 0.160021 5.51715 0.231058 5.39632C0.299728 5.2755 0.375501 5.14756 0.451275 5.02674C0.458378 5.01252 0.465482 4.9912 0.47969 4.97698C0.541255 4.87748 0.609925 4.77087 0.680963 4.67136C0.756736 4.55764 0.839613 4.44392 0.92249 4.3302C0.92249 4.3231 0.929594 4.31599 0.929594 4.31599C1.00537 4.22359 1.07404 4.13119 1.14271 4.0459C1.15691 4.01747 1.17823 3.99615 1.19717 3.97483C1.28005 3.86822 1.37003 3.76871 1.46001 3.66921C1.54999 3.5626 1.64707 3.45598 1.74416 3.35648L2.04252 3.05797L8.36722 13.7097C8.58507 13.4633 11.5023 8.52835 13.0297 5.93649Z" fill="white"/>
</svg>
